<svg width="16" height="16" viewBox="0 0 16 16" fill="none" xmlns="http://www.w3.org/2000/svg">
<g clip-path="url(#clip0_203_3482)">
<path d="M8.00001 13.9599C9.00001 13.9599 9.83334 14.6666 10.6667 14.6666C12.6667 14.6666 14.6667 9.33322 14.6667 6.51989C14.644 5.65637 14.2808 4.83684 13.6564 4.23992C13.032 3.643 12.197 3.31709 11.3333 3.33322C9.85334 3.33322 8.66668 4.29322 8.00001 4.66655C7.33334 4.29322 6.14668 3.33322 4.66668 3.33322C3.80251 3.31533 2.96648 3.64065 2.3417 4.23794C1.71692 4.83523 1.35433 5.65579 1.33334 6.51989C1.33334 9.33322 3.33334 14.6666 5.33334 14.6666C6.16668 14.6666 7.00001 13.9599 8.00001 13.9599Z" stroke="#020817" stroke-width="1.33333" stroke-linecap="round" stroke-linejoin="round"/>
<path d="M6.66666 1.3335C7.33332 1.66683 7.99999 2.66683 7.99999 4.66683" stroke="#020817" stroke-width="1.33333" stroke-linecap="round" stroke-linejoin="round"/>
</g>
<defs>
<clipPath id="clip0_203_3482">
<rect width="16" height="16" fill="white"/>
</clipPath>
</defs>
</svg>
