<svg width="48" height="48" viewBox="0 0 48 48" fill="none" xmlns="http://www.w3.org/2000/svg">
<rect width="48" height="48" rx="12" fill="#F1F5F9"/>
<path d="M23.562 15.2659C23.6052 15.1875 23.6686 15.1222 23.7456 15.0766C23.8227 15.0311 23.9105 15.0071 24 15.0071C24.0895 15.0071 24.1773 15.0311 24.2544 15.0766C24.3314 15.1222 24.3948 15.1875 24.438 15.2659L27.39 20.8699C27.4604 20.9997 27.5586 21.1123 27.6777 21.1995C27.7968 21.2868 27.9337 21.3467 28.0786 21.3748C28.2235 21.4029 28.3729 21.3986 28.5159 21.3621C28.659 21.3256 28.7922 21.258 28.906 21.1639L33.183 17.4999C33.2651 17.4331 33.3663 17.3941 33.472 17.3885C33.5776 17.3829 33.6824 17.411 33.7711 17.4687C33.8598 17.5264 33.9279 17.6107 33.9657 17.7096C34.0034 17.8085 34.0087 17.9168 33.981 18.0189L31.147 28.2649C31.0891 28.4746 30.9645 28.6597 30.792 28.7921C30.6195 28.9246 30.4085 28.9972 30.191 28.9989H17.81C17.5923 28.9974 17.3811 28.9249 17.2084 28.7924C17.0357 28.66 16.9109 28.4748 16.853 28.2649L14.02 18.0199C13.9922 17.9178 13.9976 17.8095 14.0353 17.7106C14.0731 17.6117 14.1412 17.5274 14.2299 17.4697C14.3186 17.412 14.4234 17.3839 14.529 17.3895C14.6347 17.3951 14.7359 17.4341 14.818 17.5009L19.094 21.1649C19.2078 21.259 19.341 21.3266 19.4841 21.3631C19.6271 21.3996 19.7765 21.4039 19.9214 21.3758C20.0663 21.3477 20.2032 21.2878 20.3223 21.2005C20.4413 21.1133 20.5396 21.0007 20.61 20.8709L23.562 15.2659Z" stroke="#020817" stroke-width="2" stroke-linecap="round" stroke-linejoin="round"/>
<path d="M17 33H31" stroke="#020817" stroke-width="2" stroke-linecap="round" stroke-linejoin="round"/>
</svg>
