<svg width="40" height="40" viewBox="0 0 40 40" fill="none" xmlns="http://www.w3.org/2000/svg">
<rect x="0.5" y="0.5" width="39" height="39" rx="9.5" fill="white"/>
<rect x="0.5" y="0.5" width="39" height="39" rx="9.5" stroke="#E2E8F0"/>
<path d="M22.6667 17.3335C23.7275 17.3335 24.7449 17.7549 25.4951 18.5051C26.2452 19.2552 26.6667 20.2726 26.6667 21.3335V26.0002H24V21.3335C24 20.9799 23.8595 20.6407 23.6095 20.3907C23.3594 20.1406 23.0203 20.0002 22.6667 20.0002C22.313 20.0002 21.9739 20.1406 21.7238 20.3907C21.4738 20.6407 21.3333 20.9799 21.3333 21.3335V26.0002H18.6667V21.3335C18.6667 20.2726 19.0881 19.2552 19.8382 18.5051C20.5884 17.7549 21.6058 17.3335 22.6667 17.3335Z" stroke="#020817" stroke-width="1.33333" stroke-linecap="round" stroke-linejoin="round"/>
<path d="M16 18H13.3333V26H16V18Z" stroke="#020817" stroke-width="1.33333" stroke-linecap="round" stroke-linejoin="round"/>
<path d="M14.6667 16.0002C15.4031 16.0002 16 15.4032 16 14.6668C16 13.9304 15.4031 13.3335 14.6667 13.3335C13.9303 13.3335 13.3333 13.9304 13.3333 14.6668C13.3333 15.4032 13.9303 16.0002 14.6667 16.0002Z" stroke="#020817" stroke-width="1.33333" stroke-linecap="round" stroke-linejoin="round"/>
</svg>
